<?xml version="1.0"?>
<svg xmlns="http://www.w3.org/2000/svg" xmlns:xlink="http://www.w3.org/1999/xlink" xmlns:svgjs="http://svgjs.com/svgjs" version="1.1" width="512" height="512" x="0" y="0" viewBox="0 0 64 64" style="enable-background:new 0 0 512 512" xml:space="preserve" class=""><g><g xmlns="http://www.w3.org/2000/svg" id="flat"><path d="m39 7h22v6h-22z" fill="#c12b17" data-original="#c12b17" style=""/><path d="m39 13h22v6h-22z" fill="#d3661c" data-original="#d3661c" style=""/><path d="m39 19h22v6h-22z" fill="#dbcc45" data-original="#dbcc45" style=""/><path d="m39 25h22v6h-22z" fill="#409650" data-original="#409650" style="" class=""/><path d="m39 31h22v6h-22z" fill="#1c6199" data-original="#1c6199" style=""/><path d="m61 43h-33a3 3 0 0 1 -3-3v-3h36z" fill="#49297c" data-original="#49297c" style=""/><path d="m3 3h4v58h-4z" fill="#ffffff" data-original="#ad6327" style="" class=""/><path d="m7 3h30a2 2 0 0 1 2 2v4a0 0 0 0 1 0 0h-32a0 0 0 0 1 0 0v-6a0 0 0 0 1 0 0z" fill="#e1462b" data-original="#e1462b" style=""/><path d="m7 9h32v6h-32z" fill="#e97424" data-original="#e97424" style=""/><path d="m7 15h32v6h-32z" fill="#fcf05a" data-original="#fcf05a" style=""/><path d="m7 21h32v6h-32z" fill="#55b56a" data-original="#55b56a" style=""/><path d="m7 27h32v6h-32z" fill="#2d75bb" data-original="#2d75bb" style="" class=""/><path d="m7 33h32v6h-32z" fill="#5f3894" data-original="#5f3894" style=""/><path d="m3 45h4v4h-4z" fill="#ffffff" data-original="#d3843d" style="" class=""/><path d="m3 49h4v4h-4z" fill="#ffffff" data-original="#f9bb4b" style="" class=""/></g></g></svg>
