<svg width="960" height="480" viewBox="0 0 960 480" fill="none" xmlns="http://www.w3.org/2000/svg">
<g clip-path="url(#clip0)">
<g clip-path="url(#clip1)">
<g clip-path="url(#clip2)">
<path d="M671.374 25.7309C627.553 25.7309 592.037 61.2472 592.037 105.068C592.037 148.889 627.553 184.405 671.374 184.405C715.195 184.405 750.711 148.889 750.711 105.068C750.711 61.2472 715.195 25.7309 671.374 25.7309Z" fill="#6CBBD7"/>
<path d="M209.289 288.59C209.289 275.745 217.594 264.819 229.09 260.924C217.594 257.03 209.289 246.093 209.289 233.259V232.612C209.289 219.767 217.594 208.841 229.09 204.946C217.594 201.04 209.289 190.104 209.289 177.258V176.611C209.289 161.188 221.263 148.522 236.362 147.484C236.506 147.439 236.662 147.417 236.818 147.417H311.487C311.643 147.417 311.799 147.439 311.943 147.484C327.053 148.522 339.016 161.188 339.016 176.611V177.258C339.016 190.104 330.711 201.029 319.214 204.924C330.722 208.819 339.016 219.755 339.016 232.589V233.237C339.016 246.082 330.711 257.007 319.214 260.913C330.722 264.808 339.016 275.745 339.016 288.579V289.226C339.016 305.319 325.974 318.42 309.931 318.42H238.374C222.331 318.443 209.289 305.341 209.289 289.248V288.59Z" fill="#F778B9"/>
<path d="M662.14 389.093C658.45 386.364 653.981 384.892 649.392 384.892L310.608 384.892C306.019 384.892 301.551 386.364 297.86 389.093L235.449 435.238C227.135 441.386 231.483 454.58 241.823 454.58L718.177 454.58C728.518 454.58 732.866 441.386 724.551 435.238L662.14 389.093Z" fill="white"/>
<path d="M624.994 138.794C636.843 128.055 628.705 108.347 612.777 109.17L567.8 111.474C557.755 111.988 549.494 103.677 550.006 93.6171L552.302 48.4815C553.122 32.4969 533.463 24.3297 522.783 36.1999L492.586 69.7533C485.863 77.2416 474.157 77.2416 467.413 69.7533L437.237 36.2204C426.536 24.3297 406.898 32.4969 407.718 48.5021L410.013 93.6377C410.526 103.718 402.244 112.009 392.22 111.494L347.243 109.19C331.315 108.367 323.177 128.076 335.005 138.814L368.44 169.097C375.902 175.845 375.902 187.591 368.44 194.36L335.005 224.642C323.156 235.381 331.294 255.089 347.243 254.266L392.22 251.962C402.265 251.448 410.526 259.759 410.013 269.819L407.718 314.954C406.898 330.939 426.557 339.106 437.237 327.236L467.413 293.683C474.157 286.194 485.863 286.194 492.586 293.683L522.762 327.236C533.463 339.127 553.102 330.96 552.282 314.954L549.986 269.819C549.473 259.738 557.755 251.448 567.78 251.962L612.756 254.266C628.684 255.089 636.823 235.36 624.974 224.642L591.539 194.36C584.077 187.612 584.077 175.865 591.539 169.097L624.994 138.794Z" fill="#F4B510"/>
</g>
<g clip-path="url(#clip3)">
<path d="M332.872 400.031L346.482 361.43C346.7 360.887 346.848 360.319 346.924 359.74L353.511 309.419L367.18 283.152H328.316C328.316 283.152 318.667 297.357 319.739 312.903C320.758 327.685 325.897 348.379 326.4 354.433C326.44 354.921 326.1 355.326 325.658 355.537C316.178 360.081 319.739 400.159 319.739 405.642C320.007 420.92 325.636 419.579 329.389 419.579C336.625 419.579 329.008 409.662 332.872 400.031Z" fill="#DD9E86"/>
<path d="M360.353 352.53C351.464 355.485 358.222 386.76 361.24 407.771C361.637 410.528 363.033 413.052 365.202 414.799L369.647 418.38C370.826 419.33 372.294 419.848 373.808 419.848H377.393C378.606 419.848 379.235 418.401 378.409 417.513C375.245 414.116 373.99 409.361 375.063 404.845L385.356 361.537C385.669 360.218 385.73 358.852 385.534 357.51L374.685 283.152H350.83C350.83 292.657 349.437 314.755 353.511 327.109L361.355 350.896C361.584 351.589 361.046 352.299 360.353 352.53Z" fill="#DD9E86"/>
<path d="M317.949 388.837L319.36 407.518H332.241L337.815 389.066C338.023 388.378 337.508 387.684 336.789 387.684H319.019C318.395 387.684 317.903 388.215 317.949 388.837Z" fill="#ECA8FF"/>
<path d="M379.906 388.88L377.73 407.518H360.815L357.24 388.959C357.113 388.297 357.62 387.684 358.293 387.684H378.841C379.482 387.684 379.98 388.243 379.906 388.88Z" fill="#ECA8FF"/>
<path d="M357.263 283.152H374.946C376.023 283.152 376.933 283.951 377.072 285.02L382.679 328.173C382.846 329.456 381.847 330.593 380.553 330.593H354.667L350.562 318.724L357.263 283.152Z" fill="#B48CFF"/>
<path fill-rule="evenodd" clip-rule="evenodd" d="M364.5 330.593H354.668L352.966 325.674L359.3 308.21C360.323 305.39 364.5 306.12 364.5 309.121V330.593Z" fill="#9F6DFE"/>
<path d="M324.29 287.527L326.606 284.096C327.005 283.506 327.671 283.152 328.383 283.152H369.86L361.105 307.449C359.799 311.073 358.913 314.835 358.464 318.661L357.082 330.441C356.955 331.521 356.04 332.335 354.952 332.335H319.644C318.497 332.335 317.554 331.433 317.502 330.288L316.945 317.945C316.842 315.662 316.968 313.374 317.32 311.116L318.828 301.438C319.604 296.456 321.469 291.706 324.29 287.527Z" fill="#B48CFF"/>
<path d="M357.531 421.889C357.531 419.106 357.82 416.33 358.393 413.607L359.458 408.55C360.136 405.331 363.525 403.476 366.601 404.64L369.384 405.693C370.035 405.94 370.745 405.51 370.828 404.818L371.015 403.255C371.274 401.099 373.102 399.477 375.273 399.477H377.089C378.999 399.477 380.679 400.74 381.209 402.575L382.855 408.273C383.445 410.316 385.007 411.936 387.027 412.599L399.61 416.734C401.37 417.312 402.56 418.956 402.56 420.808V426.816C402.56 428.001 401.6 428.961 400.416 428.961H359.675C358.491 428.961 357.531 428.001 357.531 426.816V421.889Z" fill="#F4B510"/>
<path d="M315.718 417.703L316.871 406.847C317.05 405.168 319.145 404.512 320.249 405.789V405.789C320.418 405.983 320.726 405.962 320.866 405.745L323.646 401.439C324.436 400.216 325.793 399.477 327.249 399.477H330.621C332.527 399.477 334.205 400.735 334.738 402.566L336.744 409.447C337.14 410.803 337.971 411.992 339.109 412.829L343.99 416.418C345.089 417.226 345.738 418.509 345.738 419.873V426.816C345.738 428.001 344.778 428.961 343.593 428.961H317.862C316.678 428.961 315.718 428.001 315.718 426.816V417.703Z" fill="#F4B510"/>
<path d="M357.531 423.6H399.344C399.936 423.6 400.416 424.08 400.416 424.672V425.744C400.416 426.336 399.936 426.816 399.344 426.816H357.531V423.6Z" fill="#389810"/>
<path d="M315.718 423.6H324.831C325.423 423.6 325.903 424.08 325.903 424.672V425.744C325.903 426.336 325.423 426.816 324.831 426.816H315.718V423.6Z" fill="#389810"/>
<path d="M386.019 410.734L381.118 413.951L387.55 411.807L384.181 415.559" stroke="#E379F8" stroke-width="1.07212" stroke-linejoin="bevel"/>
<path d="M336.625 410.734L327.244 412.879H337.965L330.728 415.023" stroke="#E379F8" stroke-width="1.07212" stroke-linejoin="bevel"/>
</g>
<path d="M387 229.833C388.344 227.584 388.729 224.851 387.844 222.382L386.994 220.013C386.809 219.495 386.758 218.938 386.846 218.395L387.847 212.232C387.954 211.569 388.265 210.957 388.735 210.48L391.21 207.967C391.801 207.367 392.818 207.655 393.011 208.478L393.171 209.155C393.367 209.989 393.225 210.867 392.778 211.596L392.153 212.614C392.058 212.77 391.985 212.938 391.938 213.115L391.846 213.462C391.63 214.272 392.109 215.105 392.914 215.322C393.577 215.501 394.277 215.207 394.617 214.606L396.784 210.769C397.046 210.306 397.19 209.785 397.203 209.253L397.356 203.032C397.37 202.468 397.811 202.009 398.371 201.975C398.796 201.949 399.197 202.178 399.393 202.558L400.817 205.308C400.992 205.647 401.228 205.95 401.512 206.204C402.099 206.728 402.468 207.455 402.544 208.241L402.577 208.582C402.623 209.054 402.815 209.5 403.126 209.857L403.373 210.139C403.716 210.531 403.841 211.069 403.707 211.573L403.679 211.677C403.57 212.086 403.659 212.523 403.919 212.856C404.179 213.19 404.268 213.627 404.159 214.036L403.645 215.97C403.551 216.323 403.376 216.649 403.136 216.922C402.856 217.239 402.666 217.629 402.587 218.046C401.772 222.367 400.508 226.613 398.825 230.673C380.856 279.1 368.264 261.205 387 229.833Z" fill="#DD9E86"/>
<path d="M391.951 210.062C391.556 210.655 390.915 210.921 390.52 210.658C390.125 210.394 390.126 209.7 390.521 209.108C390.916 208.516 391.557 208.249 391.952 208.512C392.347 208.776 392.346 209.47 391.951 210.062Z" fill="#FAC798"/>
<path d="M354.992 252.331L375.866 276.093C377.626 278.097 380.746 278.005 382.275 275.819C384.924 272.031 388.808 265.996 391.839 259.297C396.223 249.607 398.62 236.54 399.203 233.09C399.288 232.584 398.994 232.102 398.51 231.929L388.14 228.242C387.645 228.067 387.096 228.274 386.842 228.734L377.137 246.285C376.22 247.943 373.761 247.685 373.209 245.872L370.933 238.391L361.707 238.098C354.205 237.86 350.038 246.692 354.992 252.331Z" fill="#F97600"/>
<path fill-rule="evenodd" clip-rule="evenodd" d="M376.025 247.257V258.493C376.025 262.129 378.286 269.476 381.004 276.995C379.384 277.937 377.222 277.637 375.866 276.093L354.992 252.331C350.038 246.692 354.205 237.86 361.707 238.098L370.933 238.391L373.209 245.872C373.6 247.155 374.947 247.66 376.025 247.257Z" fill="#DE5000"/>
<path d="M338.233 227.938H354.583L374.685 283.152H328.584L330.945 274.843L338.233 227.938Z" fill="#DD9E86"/>
<path d="M370.756 236.483C371.993 240.692 373.227 245.765 373.345 250.988C373.466 256.358 373.073 261.619 372.512 266.534C375.716 271.966 376.681 277.921 376.972 281.016C377.083 282.195 376.135 283.152 374.951 283.152H326.708C325.524 283.152 324.558 282.191 324.645 281.01C325.169 273.842 328.047 266.534 328.047 266.534L328.047 227.938L340.645 226.061L340.378 226.774C339.551 228.978 339.995 231.458 341.534 233.239L351.574 244.854C352.087 245.448 353.049 245.281 353.332 244.549C355.316 239.431 354.956 233.701 352.348 228.872L350.83 226.061C355.994 226.061 369.299 231.529 370.756 236.483Z" fill="#F97600"/>
<path fill-rule="evenodd" clip-rule="evenodd" d="M326.439 271.444C327.263 268.523 328.047 266.534 328.047 266.534L328.047 239.525C329.58 240.161 331.002 241.699 332.125 243.984C333.633 247.05 334.48 251.208 334.48 255.545C334.48 259.881 333.633 264.04 332.125 267.106C330.617 270.172 328.572 271.895 326.439 271.895L326.439 271.444Z" fill="#DE5000"/>
<path d="M307.259 270.108L320.843 232.979C321.95 229.951 324.831 227.938 328.055 227.938C333.739 227.938 337.469 233.9 335.015 239.026C330.671 248.102 324.651 260.902 320.747 270.127C320.32 271.134 320.737 272.282 321.631 272.912C333.38 281.189 340.692 306.377 341.717 310.223C342.709 313.942 346.224 322.938 346.745 324.264C346.789 324.377 346.812 324.491 346.817 324.612L347.057 331.105C347.07 331.456 346.91 331.791 346.629 332.002L346.316 332.237C345.68 332.714 344.764 332.356 344.619 331.574L343.629 326.227C343.605 326.101 343.56 325.981 343.494 325.871L341.141 321.949C340.987 321.693 340.593 321.842 340.647 322.136L341.68 327.714C341.705 327.846 341.704 327.98 341.679 328.112L340.496 334.266C340.422 334.646 340.149 334.958 339.782 335.08L339.488 335.178C338.763 335.42 338.025 334.847 338.079 334.085L338.487 328.378C338.496 328.248 338.482 328.117 338.444 327.992L337.144 323.676C337.058 323.391 336.642 323.437 336.62 323.734L336.375 327.122C336.363 327.29 336.312 327.452 336.225 327.596L332.734 333.415C332.496 333.811 332.032 334.01 331.582 333.91L331.218 333.829C330.552 333.681 330.192 332.957 330.476 332.336L332.784 327.3C332.842 327.174 332.875 327.037 332.881 326.898L332.988 324.324C333.002 323.992 332.519 323.936 332.457 324.262L332.172 325.761C332.107 326.102 331.881 326.391 331.565 326.535L326.809 328.715C326.199 328.995 325.485 328.652 325.322 328.001L325.27 327.79C325.166 327.377 325.318 326.941 325.656 326.681L328.208 324.717C328.447 324.533 328.598 324.257 328.623 323.957L328.819 321.609C328.84 321.354 328.763 321.101 328.603 320.901C326.836 318.692 326.701 315.593 328.271 313.239L328.316 313.171L307.491 273.578C306.927 272.506 306.843 271.246 307.259 270.108Z" fill="#DD9E86"/>
<path d="M346.81 330.861C346.81 331.453 346.45 331.933 346.006 331.933C345.562 331.933 345.202 331.453 345.202 330.861C345.202 330.269 345.562 329.789 346.006 329.789C346.45 329.789 346.81 330.269 346.81 330.861Z" fill="#FAC798"/>
<path d="M340.377 333.542C340.377 334.134 340.017 334.614 339.573 334.614C339.129 334.614 338.769 334.134 338.769 333.542C338.769 332.949 339.129 332.469 339.573 332.469C340.017 332.469 340.377 332.949 340.377 333.542Z" fill="#FAC798"/>
<path d="M332.705 332.895C332.434 333.439 331.929 333.688 331.578 333.453C331.226 333.218 331.16 332.587 331.431 332.044C331.702 331.5 332.207 331.251 332.559 331.486C332.91 331.721 332.976 332.352 332.705 332.895Z" fill="#FAC798"/>
<path d="M327.128 328.106C326.541 328.293 325.998 328.118 325.914 327.715C325.83 327.312 326.237 326.834 326.823 326.648C327.409 326.461 327.953 326.636 328.037 327.039C328.121 327.441 327.714 327.919 327.128 328.106Z" fill="#FAC798"/>
<path d="M307.219 270.218L320.843 232.979C321.95 229.951 324.831 227.938 328.055 227.938C333.739 227.938 337.469 233.9 335.015 239.026C330.671 248.102 324.651 260.902 320.747 270.127C320.32 271.134 320.735 272.282 321.631 272.91C332.7 280.671 340.879 303.568 342.754 309.711C342.929 310.286 342.579 310.877 341.996 311.02L327.561 314.57C327.065 314.692 326.551 314.446 326.334 313.984L307.363 273.511C306.878 272.477 306.826 271.291 307.219 270.218Z" fill="#F97600"/>
<circle cx="338.233" cy="226.865" r="1.07212" fill="#DE5000"/>
<circle cx="337.697" cy="229.01" r="1.07212" fill="#389810"/>
<circle cx="337.161" cy="231.154" r="1.07212" fill="#FFB3DA"/>
<circle cx="337.161" cy="233.298" r="1.07212" fill="#FECE00"/>
<circle cx="337.161" cy="235.442" r="1.07212" fill="#FECE00"/>
<circle cx="337.161" cy="237.587" r="1.07212" fill="#FECE00"/>
<circle cx="338.769" cy="245.092" r="1.07212" fill="#6CBBD7"/>
<circle cx="339.305" cy="248.308" r="1.07212" fill="#F23116"/>
<circle cx="342.521" cy="255.813" r="1.07212" fill="#FFB3DA"/>
<circle cx="344.129" cy="257.421" r="1.07212" fill="#FECE00"/>
<circle cx="346.542" cy="259.833" r="0.804092" fill="#389810"/>
<circle cx="348.418" cy="260.637" r="1.07212" fill="#FECE00"/>
<circle cx="350.562" cy="260.637" r="1.07212" fill="#6CBBD7"/>
<circle cx="352.706" cy="260.637" r="1.07212" fill="#FFB3DA"/>
<circle cx="354.583" cy="260.369" r="0.804092" fill="#F23116"/>
<circle cx="360.747" cy="255.277" r="1.07212" fill="#6CBBD7"/>
<circle cx="361.283" cy="253.132" r="1.07212" fill="#F23116"/>
<circle cx="361.819" cy="250.988" r="1.07212" fill="#FECE00"/>
<circle cx="361.819" cy="243.483" r="1.07212" fill="#1570FF"/>
<circle cx="359.675" cy="233.834" r="1.07212" fill="#6CBBD7"/>
<circle cx="359.139" cy="231.69" r="1.07212" fill="#FECE00"/>
<circle cx="358.067" cy="229.546" r="1.07212" fill="#FECE00"/>
<circle cx="356.995" cy="227.401" r="1.07212" fill="#389810"/>
<circle cx="357.531" cy="259.029" r="2.14425" fill="#FECE00"/>
<circle cx="338.233" cy="241.875" r="2.14425" fill="#389810"/>
<circle cx="361.819" cy="246.7" r="2.14425" fill="#FFB3DA"/>
<path d="M362.768 238.695C363.163 240.45 362.579 242.096 361.462 242.372C360.346 242.648 359.121 241.449 358.726 239.694C358.332 237.94 358.916 236.294 360.032 236.018C361.148 235.742 362.373 236.941 362.768 238.695Z" fill="#F23116"/>
<ellipse cx="340.377" cy="252.328" rx="2.14425" ry="2.94834" transform="rotate(-10.8539 340.377 252.328)" fill="#6CBBD7"/>
<ellipse cx="337.697" cy="239.195" rx="1.60818" ry="0.536061" fill="#1570FF"/>
<path d="M340.906 246.35C340.99 246.574 340.342 246.913 339.458 247.106C338.574 247.299 337.789 247.274 337.704 247.049C337.62 246.825 338.268 246.486 339.152 246.293C340.036 246.1 340.821 246.126 340.906 246.35Z" fill="#FFB3DA"/>
<ellipse cx="361.819" cy="249.38" rx="1.60818" ry="0.536061" fill="#389810"/>
<ellipse cx="360.211" cy="235.442" rx="1.60818" ry="0.536061" fill="#FFB3DA"/>
<path d="M346.727 257.504C347.008 257.785 346.552 258.695 345.71 259.538C344.868 260.38 343.957 260.835 343.676 260.554C343.396 260.274 343.851 259.363 344.693 258.521C345.536 257.678 346.446 257.223 346.727 257.504Z" fill="#6CBBD7"/>
<path d="M358.15 255.36C357.869 255.64 358.324 256.551 359.167 257.393C360.009 258.236 360.92 258.691 361.2 258.41C361.481 258.129 361.026 257.219 360.184 256.376C359.341 255.534 358.431 255.079 358.15 255.36Z" fill="#389810"/>
<path fill-rule="evenodd" clip-rule="evenodd" d="M344.397 171.651C339.216 171.651 335.016 175.851 335.016 181.032C335.016 182.377 335.3 183.656 335.809 184.813C336.166 185.622 335.63 186.661 334.746 186.661H334.48C323.822 186.661 315.182 195.301 315.182 205.959V208.639C315.182 219.297 323.822 227.938 334.48 227.938H363.428C374.086 227.938 382.726 219.297 382.726 208.639V205.959C382.726 195.301 374.086 186.661 363.428 186.661V186.661C362.655 186.661 362.19 185.756 362.522 185.059C363.103 183.839 363.428 182.474 363.428 181.032C363.428 175.851 359.228 171.651 354.047 171.651H344.397Z" fill="#A6735B"/>
<path d="M365.036 218.288C365.036 219.974 364.579 221.475 363.87 222.54C363.158 223.608 362.233 224.185 361.283 224.185C360.334 224.185 359.409 223.608 358.697 222.54C357.987 221.475 357.531 219.974 357.531 218.288C357.531 216.603 357.987 215.102 358.697 214.037C359.409 212.969 360.334 212.392 361.283 212.392C362.233 212.392 363.158 212.969 363.87 214.037C364.579 215.102 365.036 216.603 365.036 218.288Z" stroke="#F4B510" stroke-width="1.07212"/>
<path fill-rule="evenodd" clip-rule="evenodd" d="M342.291 202.207H346.81C349.082 202.207 351.131 200.84 352.005 198.743L352.349 197.918L352.496 198.358C353.262 200.656 355.413 202.207 357.835 202.207H361.097C361.42 202.972 361.644 203.813 361.75 204.728C361.844 205.539 361.944 206.357 362.253 207.113C362.584 207.923 362.892 208.676 362.892 209.711C362.892 212.396 362.22 214.896 361.033 216.992C360.664 217.642 360.322 218.32 359.978 218.999L359.978 218.999C359.351 220.24 358.72 221.488 357.921 222.592C356.752 224.207 354.852 225.257 352.706 225.257C352.454 225.257 352.204 225.243 351.959 225.214L353.4 230.577C354.132 233.302 352.079 235.978 349.258 235.978H347.882C343.145 235.978 339.305 232.138 339.305 227.401V215.13C339.261 215.025 339.219 214.919 339.178 214.813C338.76 213.735 337.78 212.928 336.625 212.928C335.44 212.928 334.48 211.968 334.48 210.784V209.209C334.48 207.01 337.395 206.236 338.486 208.145C338.815 208.721 339.569 208.788 339.863 208.194C340.192 207.526 340.501 206.683 340.842 205.756C341.251 204.642 341.704 203.407 342.291 202.207Z" fill="#DD9E86"/>
<path d="M340.377 218.288C340.377 219.974 339.921 221.475 339.211 222.54C338.499 223.608 337.574 224.185 336.625 224.185C335.675 224.185 334.75 223.608 334.038 222.54C333.329 221.475 332.872 219.974 332.872 218.288C332.872 216.603 333.329 215.102 334.038 214.037C334.75 212.969 335.675 212.392 336.625 212.392C337.574 212.392 338.499 212.969 339.211 214.037C339.921 215.102 340.377 216.603 340.377 218.288Z" stroke="#F4B510" stroke-width="1.07212"/>
<path d="M353.242 206.495L353.617 209.117C353.724 209.865 353.966 210.586 354.333 211.245L355.157 212.729C355.741 213.78 354.981 215.072 353.779 215.072V215.072" stroke="#1A2027" stroke-width="1.07212"/>
<path d="M356.995 212.928C356.995 213.52 356.515 214 355.923 214L355.387 214" stroke="#1A2027" stroke-width="1.07212"/>
<path d="M352.17 214C351.578 214 351.098 213.52 351.098 212.928" stroke="#1A2027" stroke-width="1.07212"/>
<path d="M356.456 217.796C356.413 217.404 354.643 217.269 354.205 218.209C353.689 217.269 350.77 216.843 349.49 217.62C350.997 219.003 350.826 220.433 353.975 220.433C355.196 220.433 355.714 219.258 355.843 218.614C356.009 218.446 356.499 218.188 356.456 217.796Z" fill="#C61800"/>
<path d="M350.026 205.959C348.842 204.53 346.922 204.53 345.738 205.959" stroke="#1A2027" stroke-width="1.07212"/>
<path d="M350.026 207.567C348.842 206.138 346.922 206.138 345.738 207.567C347.453 209.497 349.311 208.371 350.026 207.567Z" fill="white"/>
<path d="M360.747 207.567C359.563 206.138 357.643 206.138 356.459 207.567C358.174 209.497 360.033 208.371 360.747 207.567Z" fill="white"/>
<path d="M360.747 205.959C359.563 204.53 357.643 204.53 356.459 205.959" stroke="#1A2027" stroke-width="1.07212"/>
<path d="M360.211 209.175C359.323 208.461 357.883 208.461 356.995 209.175" stroke="#1A2027" stroke-width="1.07212"/>
<path d="M349.49 209.175C348.602 208.461 347.162 208.461 346.274 209.175" stroke="#1A2027" stroke-width="1.07212"/>
<circle cx="347.882" cy="207.567" r="1.07212" fill="#1A2027"/>
<circle cx="358.603" cy="207.567" r="1.07212" fill="#1A2027"/>
<g clip-path="url(#clip4)">
<path d="M629.046 405.642L617.521 363.561L606.531 309.419L592.862 283.152H631.726C631.726 283.152 641.375 297.357 640.303 312.903C639.282 327.707 636.074 351.842 635.77 358.187C635.747 358.676 636.088 359.077 636.527 359.295C645.898 363.933 640.303 405.642 640.303 405.642H629.046Z" fill="#B6704F"/>
<path d="M572.496 351.463C572.528 347.86 572.772 333.479 574.636 324.161C576.78 313.439 585.357 283.152 585.357 283.152H609.212C609.212 292.657 608.193 314.755 604.119 327.109L596.275 350.896C596.046 351.589 596.575 352.301 597.29 352.451C609.613 355.038 600.806 391.15 598.222 412.075H587.233L572.694 353.126C572.56 352.58 572.491 352.026 572.496 351.463Z" fill="#B6704F"/>
<path d="M577.584 417.373L582.365 413.1C584.485 411.206 585.352 408.276 584.605 405.533L583.686 402.157H600.525L599.941 406.448C599.634 408.7 600.49 410.91 601.54 412.924C604.769 419.117 602.211 426.635 599.456 428.961H591.972L592.506 424.899L586.896 428.605C586.546 428.837 586.135 428.961 585.714 428.961H562.101C561.395 428.961 560.881 428.289 561.067 427.607L561.979 424.258C562.506 422.324 564.068 420.845 566.028 420.425L575.624 418.369C576.353 418.213 577.028 417.87 577.584 417.373Z" fill="#F23116"/>
<path d="M643.121 399.477H625.965C625.965 401.354 626.128 403.007 626.185 404.628C626.37 409.864 624.552 415.076 624.493 420.314C624.456 423.619 624.716 426.964 625.965 428.961H645.617C647.486 424.191 640.429 411.627 640.429 409.951C640.429 407.907 643.121 399.477 643.121 399.477Z" fill="#F23116"/>
<path d="M602.648 406.623C603.435 401.457 607.336 375.346 607.336 365.705C607.336 346.509 604.968 356.937 611.892 335.686L607.336 283.152H585.357C584.173 283.152 583.213 284.112 583.213 285.296V290.059C583.213 290.45 583.107 290.83 582.909 291.167C576.096 302.742 571.151 321.652 571.151 345.603C571.151 378.32 579.04 402.491 580.552 406.823C580.699 407.245 581.097 407.518 581.544 407.518H601.592C602.121 407.518 602.569 407.146 602.648 406.623Z" fill="#1570FF"/>
<path fill-rule="evenodd" clip-rule="evenodd" d="M607.307 362.231C607.198 355.843 606.82 353.787 606.987 351.776C607.199 349.232 608.284 346.76 611.892 335.686L611.253 328.311C609.602 320.141 607.608 312.038 605.728 305.666C600.724 315.584 592.487 344.799 607.068 361.953C607.148 362.048 607.228 362.14 607.307 362.231Z" fill="#105ACD"/>
<path d="M645.298 406.686C646.429 400.975 652.677 366.654 647.54 328.985C645.664 315.223 643.99 299.588 637.228 289.888C636.967 289.513 636.819 289.07 636.819 288.612V285.296C636.819 284.112 635.859 283.152 634.675 283.152H600.695C600.08 283.152 599.592 283.665 599.629 284.279C600.057 291.256 602.585 328.787 608.408 344.799C614.84 362.489 620.737 383.663 620.737 383.663L622.536 406.53C622.58 407.088 623.039 407.518 623.598 407.518H644.271C644.776 407.518 645.2 407.182 645.298 406.686Z" fill="#1570FF"/>
</g>
<path d="M573.042 234.122C571.698 231.872 571.313 229.14 572.198 226.67L573.048 224.301C573.233 223.784 573.284 223.227 573.196 222.684L572.195 216.521C572.088 215.858 571.777 215.245 571.307 214.768L568.833 212.256C568.241 211.655 567.224 211.944 567.031 212.766L566.871 213.444C566.675 214.278 566.817 215.156 567.264 215.884L567.889 216.903C567.984 217.058 568.057 217.227 568.104 217.403L568.196 217.751C568.412 218.561 567.934 219.394 567.128 219.611C566.465 219.79 565.765 219.496 565.425 218.895L563.258 215.057C562.996 214.594 562.852 214.074 562.839 213.541L562.686 207.321C562.672 206.757 562.231 206.297 561.671 206.263C561.246 206.238 560.846 206.466 560.649 206.846L559.225 209.596C559.05 209.935 558.814 210.239 558.53 210.492C557.943 211.016 557.574 211.744 557.498 212.53L557.465 212.87C557.419 213.342 557.227 213.789 556.916 214.145L556.669 214.428C556.326 214.82 556.201 215.358 556.335 215.862L556.363 215.965C556.472 216.375 556.383 216.812 556.123 217.145C555.863 217.478 555.774 217.915 555.883 218.324L556.397 220.258C556.491 220.611 556.666 220.937 556.907 221.211C557.186 221.528 557.376 221.918 557.455 222.335C558.27 226.656 559.534 230.902 561.217 234.961C579.186 283.389 591.778 265.494 573.042 234.122Z" fill="#B6704F"/>
<path d="M568.091 214.351C568.486 214.943 569.127 215.21 569.522 214.946C569.917 214.683 569.916 213.989 569.521 213.396C569.126 212.804 568.485 212.537 568.09 212.801C567.695 213.065 567.696 213.758 568.091 214.351Z" fill="#FAC798"/>
<path d="M601.171 230.082L610.165 236.284C614.392 239.198 615.128 245.148 611.74 249.005L584.714 279.769C582.786 281.964 579.276 281.631 577.795 279.113L558.983 247.121C558.254 245.88 558.437 244.305 559.433 243.266L573.218 228.87C573.757 228.307 574.697 228.489 574.988 229.211L583.088 249.363C583.843 251.241 586.539 251.124 587.129 249.188L589.11 242.679L601.171 230.082Z" fill="#B48CFF"/>
<path fill-rule="evenodd" clip-rule="evenodd" d="M584.232 250.541L574.748 273.93L577.795 279.113C579.276 281.631 582.786 281.964 584.714 279.77L611.74 249.005C615.128 245.148 614.392 239.198 610.165 236.284L601.171 230.082L589.11 242.679L587.129 249.188C586.722 250.522 585.315 250.993 584.232 250.541Z" fill="#9F6DFE"/>
<path d="M631.994 227.938L609.117 227.786C598.908 227.718 590.068 234.857 587.984 244.851L581.069 278.01C580.515 280.666 582.536 283.163 585.249 283.174L640.873 283.409C642.236 283.414 643.259 282.163 642.981 280.828L631.994 227.938Z" fill="#B48CFF"/>
<path d="M627.659 302.986L639.045 293.337L649.177 302.591L649.182 302.672C649.365 305.496 647.699 308.112 645.063 309.142C644.825 309.235 644.632 309.416 644.523 309.647L643.518 311.778C643.39 312.051 643.382 312.365 643.497 312.644L644.726 315.62C644.889 316.015 644.802 316.468 644.506 316.775L644.355 316.93C643.889 317.413 643.099 317.353 642.71 316.806L639.681 312.54C639.48 312.257 639.429 311.894 639.543 311.566L640.045 310.125C640.154 309.812 639.708 309.619 639.555 309.913L638.36 312.196C638.296 312.32 638.256 312.454 638.243 312.593L637.724 318.108C637.66 318.787 636.985 319.235 636.334 319.03L635.979 318.918C635.539 318.78 635.237 318.375 635.229 317.914L635.115 311.129C635.112 310.961 635.149 310.794 635.222 310.643L636.704 307.586C636.834 307.319 636.496 307.07 636.279 307.274L632.995 310.362C632.9 310.452 632.823 310.557 632.766 310.675L630.265 315.821C629.931 316.508 629.006 316.636 628.499 316.064L628.293 315.832C628.036 315.542 627.955 315.136 628.082 314.769L630.134 308.848C630.178 308.722 630.245 308.605 630.332 308.503L634.016 304.189C634.209 303.962 633.943 303.635 633.682 303.78L629.683 306C629.571 306.062 629.471 306.144 629.388 306.241L625.857 310.377C625.34 310.982 624.368 310.833 624.056 310.102L623.902 309.742C623.764 309.419 623.793 309.049 623.98 308.751L627.444 303.234C627.502 303.141 627.575 303.057 627.659 302.986Z" fill="#B6704F"/>
<path d="M624.316 308.664C624.02 309.177 624.092 309.773 624.476 309.995C624.861 310.217 625.413 309.981 625.709 309.468C626.005 308.955 625.933 308.36 625.548 308.138C625.164 307.916 624.612 308.151 624.316 308.664Z" fill="#FAC798"/>
<path d="M628.547 314.202C628.251 314.714 628.322 315.31 628.707 315.532C629.091 315.754 629.643 315.519 629.939 315.006C630.235 314.493 630.164 313.897 629.779 313.675C629.394 313.453 628.843 313.689 628.547 314.202Z" fill="#FAC798"/>
<path d="M635.514 317.478C635.477 318.084 635.789 318.552 636.211 318.525C636.634 318.497 637.006 317.983 637.043 317.377C637.08 316.771 636.768 316.303 636.345 316.331C635.923 316.358 635.551 316.872 635.514 317.478Z" fill="#FAC798"/>
<path d="M642.739 316.119C643.153 316.574 643.711 316.694 643.985 316.387C644.259 316.08 644.145 315.463 643.731 315.008C643.317 314.553 642.759 314.433 642.485 314.74C642.211 315.047 642.325 315.664 642.739 316.119Z" fill="#FAC798"/>
<path fill-rule="evenodd" clip-rule="evenodd" d="M628.997 283.355L641.643 283.409C642.29 283.411 642.861 283.131 643.252 282.692L640.269 266.802L635.329 240.486C631.872 243.131 629.078 248.441 627.56 255.247C626.042 262.053 625.926 269.798 627.236 276.777C627.679 279.139 628.274 281.348 628.997 283.355Z" fill="#9F6DFE"/>
<path d="M621.273 227.938H641.035C643.776 227.938 646.351 229.247 647.965 231.461L671.647 263.934C677.145 271.473 677.424 281.621 672.347 289.45L662.424 304.753C660.244 308.115 655.807 309.171 652.346 307.152L636.368 297.831C634.313 296.633 633.439 294.117 634.307 291.903L642.328 271.45C643.083 269.524 642.943 267.362 641.947 265.549L621.273 227.938Z" fill="#B48CFF"/>
<path d="M593.564 196.861C593.416 197.895 592.376 199.557 594.966 202.096C597.556 204.636 615.033 215.382 616.596 215.065C624.919 213.38 625.664 202.34 622.982 200.863C626.615 198.456 622.982 193.16 619.467 195.046C619.467 186.981 606.606 188.55 599.021 186.981C591.437 185.411 591.992 190.028 591.344 191.967C590.697 193.906 593.749 195.568 593.564 196.861Z" fill="#7B371F"/>
<path fill-rule="evenodd" clip-rule="evenodd" d="M599.009 216.992C597.822 214.896 597.15 212.396 597.15 209.711C597.15 208.676 597.458 207.923 597.789 207.113C598.098 206.357 598.209 205.541 598.257 204.725C598.572 199.331 601.09 198.027 606.263 198.027H611.411C613.157 198.027 614.572 199.443 614.572 201.189V202.877C614.572 203.691 615.232 204.351 616.047 204.351C616.861 204.351 617.521 205.011 617.521 205.825V207.725C617.521 208.822 618.41 209.711 619.508 209.711C620.221 209.711 620.879 209.329 621.233 208.71L621.556 208.145C622.647 206.236 625.562 207.01 625.562 209.209V210.784C625.562 211.968 624.602 212.928 623.417 212.928C622.262 212.928 621.282 213.735 620.865 214.813C620.823 214.919 620.781 215.025 620.737 215.13V227.401C620.737 232.138 616.897 235.978 612.16 235.978H610.784C607.963 235.978 605.91 233.302 606.642 230.577L608.083 225.214C607.838 225.243 607.588 225.257 607.336 225.257C605.19 225.257 603.29 224.207 602.121 222.592C601.322 221.488 600.691 220.24 600.064 218.999C599.72 218.32 599.378 217.642 599.009 216.992Z" fill="#B6704F"/>
<path d="M606.8 206.495L606.425 209.117C606.318 209.865 606.076 210.586 605.709 211.245L604.885 212.729C604.301 213.78 605.061 215.072 606.263 215.072V215.072" stroke="#1A2027" stroke-width="1.07212"/>
<path d="M603.047 212.928C603.047 213.52 603.527 214 604.119 214L604.655 214" stroke="#1A2027" stroke-width="1.07212"/>
<path d="M607.872 214C608.464 214 608.944 213.52 608.944 212.928" stroke="#1A2027" stroke-width="1.07212"/>
<path d="M604.655 217.989L610.458 216.68C610.458 216.68 611.251 219.408 608.234 220.28C605.216 221.153 604.655 217.989 604.655 217.989Z" fill="#C61800"/>
<path d="M610.016 205.959C611.2 204.53 613.12 204.53 614.304 205.959" stroke="#1A2027" stroke-width="1.07212"/>
<path d="M610.016 207.567C611.2 206.138 613.12 206.138 614.304 207.567C612.589 209.497 610.731 208.371 610.016 207.567Z" fill="white"/>
<path d="M599.295 207.567C600.479 206.138 602.399 206.138 603.583 207.567C601.868 209.497 600.009 208.371 599.295 207.567Z" fill="white"/>
<path d="M599.295 205.959C600.479 204.53 602.399 204.53 603.583 205.959" stroke="#1A2027" stroke-width="1.07212"/>
<path d="M599.831 209.175C600.719 208.461 602.159 208.461 603.047 209.175" stroke="#1A2027" stroke-width="1.07212"/>
<path d="M610.552 209.175C611.44 208.461 612.88 208.461 613.768 209.175" stroke="#1A2027" stroke-width="1.07212"/>
<circle r="1.07212" transform="matrix(-1 0 0 1 612.16 207.567)" fill="#1A2027"/>
<circle r="1.07212" transform="matrix(-1 0 0 1 601.439 207.567)" fill="#1A2027"/>
<path d="M606.959 216.425C607.497 215.956 608.804 215.462 610.635 216.546C612.627 217.726 613.911 216.412 614.304 215.608C613.955 216.859 612.522 219.361 609.587 219.361C608.226 219.361 607.406 219.103 606.947 218.73C606.513 219.032 605.791 219.236 604.655 219.236C601.987 219.236 600.684 216.901 600.367 215.733C600.724 216.484 601.892 217.71 603.702 216.609C605.277 215.651 606.425 216.012 606.959 216.425Z" fill="#7B371F"/>
<g clip-path="url(#clip5)">
<path d="M436.233 362.795L412.209 283.152H451.074C451.074 283.152 460.723 297.357 459.651 312.903C458.677 327.029 455.268 347.661 454.653 354.851C454.585 355.648 455.409 356.166 456.159 355.886C471.713 350.056 483.458 375.998 489.938 394.921L483.237 401.353L438.598 366.261C437.472 365.376 436.646 364.166 436.233 362.795Z" fill="#9B4B35"/>
<path d="M391.844 351.463C391.876 347.86 392.119 333.479 393.983 324.161C396.127 313.439 404.704 283.152 404.704 283.152H428.559C428.559 292.657 427.541 314.755 423.467 327.109L415.622 350.896C415.393 351.589 415.922 352.301 416.637 352.451C428.961 355.038 420.153 391.15 417.57 412.075H406.581L392.042 353.126C391.907 352.58 391.839 352.026 391.844 351.463Z" fill="#9B4B35"/>
<rect width="20.9064" height="10.1852" rx="2.14425" transform="matrix(-0.799308 0.600922 0.600922 0.799308 480.065 372.138)" fill="#F23116"/>
<path d="M393.565 305.51L403.325 284.396C403.676 283.638 404.435 283.152 405.271 283.152H414.622L426.147 329.521L423.189 344.308C422.676 346.877 423.074 349.546 424.316 351.853L424.945 353.02C425.736 354.49 426.191 356.117 426.276 357.784L427.688 385.503C428.016 391.937 422.888 397.333 416.446 397.333H405.138C399.63 397.333 394.931 393.348 394.032 387.915L388.922 357.063C388.723 355.859 388.653 354.638 388.713 353.419L390.44 318.224C390.656 313.824 391.717 309.508 393.565 305.51Z" fill="#F23116"/>
<path d="M499.412 392.81C497.444 390.842 495.277 389.084 492.945 387.564L488.616 384.74C485.862 382.944 482.154 384.029 480.801 387.027L479.578 389.739C479.292 390.374 478.486 390.572 477.939 390.142L476.7 389.169C474.993 387.827 472.553 387.973 471.018 389.508L469.735 390.792C468.384 392.143 468.089 394.224 469.012 395.896L471.877 401.089C472.904 402.951 472.945 405.2 471.986 407.098L466.012 418.92C465.176 420.573 465.497 422.576 466.807 423.886L471.055 428.135C471.893 428.972 473.25 428.972 474.088 428.135L502.896 399.327C503.733 398.489 503.733 397.132 502.896 396.294L499.412 392.81Z" fill="#1A2027"/>
<path d="M500.621 394.02L471.055 423.586C470.637 424.005 470.637 424.684 471.055 425.102L471.813 425.86C472.232 426.279 472.911 426.279 473.33 425.86L502.896 396.294L500.621 394.02Z" fill="white"/>
<path d="M471.38 405.067L477.12 403.875L471.055 406.908L476.091 407.179" stroke="#F23116" stroke-width="1.07212" stroke-linejoin="bevel"/>
<path fill-rule="evenodd" clip-rule="evenodd" d="M426.128 356.465C421.899 353.72 413.817 347.621 413.817 336.222V285.832L418.49 298.714L426.147 329.521L423.189 344.308C422.676 346.877 423.074 349.546 424.316 351.853L424.941 353.013C425.523 354.094 425.923 355.26 426.128 356.465Z" fill="#C61800"/>
<path d="M462.91 299.324L455.775 284.373C455.419 283.627 454.667 283.152 453.84 283.152H407.385L431.567 364.048C432.35 366.669 433.811 369.036 435.802 370.912L450.785 385.025C451.853 386.031 453.162 386.746 454.585 387.102L459.349 388.293C461.755 388.895 464.302 388.426 466.336 387.008L480.002 377.477C482.197 375.946 483.505 373.439 483.505 370.763C483.505 369.001 482.937 367.286 481.884 365.872L474.56 356.041C472.595 353.403 469.683 351.632 466.437 351.101C462.915 350.524 460.562 347.157 461.232 343.652L465.646 320.535C467.017 313.354 466.059 305.922 462.91 299.324Z" fill="#F23116"/>
<rect width="20.9064" height="10.1852" rx="2.14425" transform="matrix(-1 0 0 1 420.786 393.044)" fill="#F23116"/>
<path d="M421.858 421.889C421.858 419.106 421.569 416.33 420.996 413.607L419.931 408.55C419.254 405.331 415.865 403.476 412.789 404.64L410.006 405.693C409.354 405.94 408.645 405.51 408.562 404.818L408.374 403.255C408.115 401.099 406.287 399.477 404.116 399.477H402.301C400.391 399.477 398.711 400.74 398.181 402.575L396.535 408.273C395.944 410.316 394.383 411.936 392.363 412.599L379.779 416.734C378.019 417.312 376.829 418.956 376.829 420.808V426.816C376.829 428.001 377.789 428.961 378.973 428.961H419.714C420.898 428.961 421.858 428.001 421.858 426.816V421.889Z" fill="#1A2027"/>
<path d="M421.858 423.6H380.046C379.453 423.6 378.973 424.08 378.973 424.672V425.744C378.973 426.336 379.453 426.816 380.046 426.816H421.858V423.6Z" fill="white"/>
<path d="M393.371 410.734L398.272 413.951L391.839 411.807L395.208 415.559" stroke="#F23116" stroke-width="1.07212" stroke-linejoin="bevel"/>
<path d="M449.466 286.904L455.736 304.461C456.903 307.729 457.367 311.208 457.098 314.668L454.848 343.564C454.372 349.68 458.41 355.236 464.374 356.672V356.672C467.047 357.316 469.433 358.823 471.161 360.961L476.277 367.288C477.789 369.159 478.325 371.635 477.721 373.963V373.963C477.142 376.198 477.611 378.574 478.996 380.42L480.021 381.787" stroke="white" stroke-width="2.14425"/>
</g>
<path d="M366.607 258.951L394.108 271.567C395.842 272.284 397.834 271.798 399.031 270.365L411.284 255.691H412.673C419.48 255.691 425.903 252.537 430.065 247.15L444.909 227.939L429.899 227.939H418.106C415.548 227.891 412.877 229.22 411.171 231.715C405.655 239.787 397.886 250.993 391.924 258.951C391.09 260.064 389.427 260.071 388.424 259.094C387.42 258.118 383.144 252.207 374.375 249.996C371.834 249.355 369.63 247.695 368.509 245.323L367.435 243.047C367.2 242.55 366.842 242.12 366.396 241.799L361.33 238.149C360.785 237.756 360.133 237.542 359.463 237.537L355.937 237.511C355.094 237.504 354.579 238.427 355.024 239.146L355.39 239.737C355.841 240.465 356.562 240.986 357.393 241.186L358.555 241.464C358.733 241.506 358.903 241.574 359.061 241.666L359.372 241.846C360.097 242.267 360.348 243.193 359.932 243.917C359.59 244.512 358.887 244.799 358.222 244.614L353.976 243.434C353.463 243.291 352.994 243.025 352.608 242.657L348.101 238.367C347.692 237.978 347.056 237.965 346.636 238.337C346.317 238.62 346.195 239.064 346.325 239.472L347.263 242.424C347.378 242.787 347.426 243.168 347.405 243.548C347.36 244.334 347.614 245.11 348.116 245.719L348.333 245.983C348.635 246.349 348.814 246.801 348.846 247.273L348.871 247.647C348.907 248.167 349.199 248.636 349.65 248.897L349.742 248.951C350.109 249.163 350.355 249.535 350.407 249.955C350.459 250.374 350.705 250.746 351.071 250.959L352.802 251.962C353.118 252.145 353.472 252.253 353.836 252.275C354.258 252.302 354.668 252.444 355.018 252.683C358.65 255.162 362.546 257.271 366.607 258.951Z" fill="#9B4B35"/>
<path d="M400.538 233.819C403.151 230.13 407.391 227.938 411.912 227.938H421.59L409.663 270.676C409.233 272.216 407.329 272.761 406.15 271.681L387.873 254.946C387.076 254.216 386.947 253.007 387.572 252.125L400.538 233.819Z" fill="#FFB3DA"/>
<path d="M356.894 239.516C357.592 239.656 358.233 239.391 358.326 238.926C358.419 238.46 357.929 237.97 357.23 237.83C356.532 237.691 355.89 237.955 355.797 238.421C355.704 238.886 356.195 239.377 356.894 239.516Z" fill="#D58E54"/>
<path fill-rule="evenodd" clip-rule="evenodd" d="M417.302 243.305V227.938L411.155 231.011C409.266 231.956 407.862 233.653 407.288 235.686L398.983 265.118L406.15 271.681C407.329 272.761 409.233 272.216 409.663 270.676L417.302 243.305Z" fill="#F778B9"/>
<path d="M451.342 281.008V227.938H442.765L425.892 247.44C424.593 248.941 422.126 248.022 422.126 246.037V227.938H417.431C413.692 227.938 410.524 230.689 410 234.39L403.442 280.707C403.26 281.998 404.262 283.152 405.565 283.152H449.197C450.382 283.152 451.342 282.192 451.342 281.008Z" fill="#FFB3DA"/>
<path d="M451.342 261.709C449.209 261.709 447.164 259.987 445.656 256.921C444.148 253.854 443.301 249.696 443.301 245.36C443.301 241.023 444.148 236.865 445.656 233.798C447.164 230.732 449.209 229.01 451.342 229.01L451.342 245.36L451.342 261.709Z" fill="#F778B9"/>
<path d="M472.131 270.108L458.547 232.979C457.439 229.951 454.558 227.938 451.334 227.938C445.65 227.938 441.921 233.9 444.375 239.026C448.719 248.102 454.738 260.902 458.643 270.127C459.069 271.134 458.653 272.282 457.759 272.912C446.009 281.189 438.698 306.377 437.672 310.223C436.68 313.942 433.165 322.938 432.644 324.264C432.6 324.377 432.577 324.491 432.573 324.612L432.332 331.105C432.319 331.456 432.479 331.791 432.76 332.002L433.073 332.237C433.709 332.714 434.626 332.356 434.771 331.574L435.761 326.227C435.784 326.101 435.83 325.981 435.896 325.871L438.249 321.949C438.402 321.693 438.796 321.842 438.742 322.136L437.709 327.714C437.685 327.846 437.685 327.98 437.71 328.112L438.894 334.266C438.967 334.646 439.24 334.958 439.608 335.08L439.902 335.178C440.627 335.42 441.365 334.847 441.31 334.085L440.903 328.378C440.893 328.248 440.908 328.117 440.945 327.992L442.245 323.676C442.331 323.391 442.748 323.437 442.769 323.734L443.014 327.122C443.026 327.29 443.078 327.452 443.164 327.596L446.656 333.415C446.893 333.811 447.357 334.01 447.808 333.91L448.171 333.829C448.837 333.681 449.197 332.957 448.913 332.336L446.605 327.3C446.547 327.174 446.514 327.037 446.508 326.898L446.401 324.324C446.387 323.992 446.87 323.936 446.932 324.262L447.218 325.761C447.283 326.102 447.509 326.391 447.824 326.535L452.58 328.715C453.19 328.995 453.904 328.652 454.067 328.001L454.12 327.79C454.223 327.377 454.071 326.941 453.733 326.681L451.181 324.717C450.942 324.533 450.791 324.257 450.766 323.957L450.571 321.609C450.549 321.354 450.627 321.101 450.786 320.901C452.554 318.692 452.688 315.593 451.119 313.239L451.074 313.171L471.899 273.578C472.463 272.506 472.547 271.246 472.131 270.108Z" fill="#9B4B35"/>
<path d="M432.58 330.861C432.58 331.453 432.94 331.933 433.384 331.933C433.828 331.933 434.188 331.453 434.188 330.861C434.188 330.269 433.828 329.789 433.384 329.789C432.94 329.789 432.58 330.269 432.58 330.861Z" fill="#D58E54"/>
<path d="M439.012 333.542C439.012 334.134 439.372 334.614 439.816 334.614C440.261 334.614 440.621 334.134 440.621 333.542C440.621 332.949 440.261 332.469 439.816 332.469C439.372 332.469 439.012 332.949 439.012 333.542Z" fill="#D58E54"/>
<path d="M446.684 332.895C446.955 333.439 447.46 333.688 447.812 333.453C448.164 333.218 448.229 332.587 447.958 332.044C447.688 331.5 447.183 331.251 446.831 331.486C446.479 331.721 446.413 332.352 446.684 332.895Z" fill="#D58E54"/>
<path d="M452.262 328.106C452.848 328.293 453.391 328.118 453.475 327.715C453.559 327.312 453.152 326.834 452.566 326.648C451.98 326.461 451.437 326.636 451.353 327.039C451.269 327.441 451.676 327.919 452.262 328.106Z" fill="#D58E54"/>
<path d="M451.342 274.575V240.267H442.765L439.157 264.72C438.375 269.907 442.392 274.575 447.638 274.575H451.342Z" fill="#F778B9"/>
<path d="M469.843 238.411C468.261 232.248 462.706 227.938 456.343 227.938H442.497V266.534C442.497 267.718 443.457 268.678 444.641 268.678H474.845C476.245 268.678 477.27 267.358 476.922 266.001L469.843 238.411Z" fill="#FFB3DA"/>
<path fill-rule="evenodd" clip-rule="evenodd" d="M416.462 185.48C414.733 188.07 413.287 191.033 411.26 193.397C407.786 197.449 405.976 202.93 406.809 208.711L407.361 212.544C407.901 216.291 407.327 220.113 405.711 223.536L404.355 226.408C404.019 227.119 404.538 227.938 405.324 227.938H437.94C448.598 227.938 457.238 219.297 457.238 208.639V205.959C457.238 200.517 454.986 195.601 451.362 192.092C449.146 189.947 447.439 187.167 445.495 184.772C443.775 182.654 441.15 181.3 438.208 181.3H424.271C421.014 181.3 418.144 182.96 416.462 185.48Z" fill="#1A2027"/>
<path fill-rule="evenodd" clip-rule="evenodd" d="M437.81 203.815H427.624C425.45 203.815 423.471 202.563 422.539 200.599L422.394 200.294V203.815H421.443C420.198 203.815 419.037 203.408 418.097 202.713C417.878 203.339 417.722 204.01 417.639 204.728C417.546 205.54 417.446 206.357 417.136 207.113C416.805 207.923 416.498 208.676 416.498 209.712C416.498 212.396 417.169 214.896 418.357 216.992C418.725 217.642 419.067 218.32 419.411 218.999L419.411 218.999C420.038 220.24 420.669 221.488 421.469 222.593C422.637 224.207 424.538 225.257 426.683 225.257C426.936 225.257 427.185 225.243 427.43 225.214L425.989 230.578C425.258 233.302 427.31 235.978 430.131 235.978H431.507C436.244 235.978 440.084 232.138 440.084 227.402V215.13C440.128 215.025 440.171 214.919 440.212 214.813C440.629 213.735 441.609 212.928 442.765 212.928C443.949 212.928 444.909 211.968 444.909 210.784V209.209C444.909 207.01 441.994 206.236 440.903 208.145C440.574 208.721 439.82 208.788 439.527 208.194C439.197 207.526 438.888 206.684 438.547 205.756L438.547 205.756C438.32 205.137 438.08 204.482 437.81 203.815Z" fill="#9B4B35"/>
<path d="M426.147 206.495L425.772 209.117C425.666 209.865 425.423 210.586 425.056 211.245L424.232 212.729C423.648 213.78 424.408 215.072 425.611 215.072V215.072" stroke="#1A2027" stroke-width="1.07212"/>
<path d="M422.394 212.928C422.394 213.52 422.874 214 423.467 214L424.003 214" stroke="#1A2027" stroke-width="1.07212"/>
<path d="M427.219 214C427.811 214 428.291 213.52 428.291 212.928" stroke="#1A2027" stroke-width="1.07212"/>
<path d="M422.933 217.796C422.976 217.404 424.746 217.269 425.184 218.209C425.701 217.269 428.62 216.843 429.899 217.62C428.393 219.003 428.563 220.433 425.414 220.433C424.193 220.433 423.675 219.258 423.546 218.614C423.381 218.446 422.89 218.188 422.933 217.796Z" fill="#1A2027"/>
<path d="M428.291 208.103C428.291 208.991 429.011 209.711 429.899 209.711" stroke="#1A2027" stroke-width="1.07212"/>
<path d="M424.003 208.103C424.003 208.991 423.283 209.711 422.394 209.711" stroke="#1A2027" stroke-width="1.07212"/>
<path d="M434.724 206.495C432.947 204.351 430.067 204.351 428.291 206.495" stroke="#1A2027" stroke-width="1.07212"/>
<path d="M417.57 206.495C419.346 204.351 422.226 204.351 424.003 206.495" stroke="#1A2027" stroke-width="1.07212"/>
<path d="M429.363 207.567C430.547 206.138 432.467 206.138 433.652 207.567C431.936 209.497 430.078 208.371 429.363 207.567Z" fill="white"/>
<path d="M418.642 207.567C419.826 206.138 421.746 206.138 422.931 207.567C421.215 209.497 419.357 208.371 418.642 207.567Z" fill="white"/>
<circle r="1.07212" transform="matrix(-1 0 0 1 431.507 207.567)" fill="#1A2027"/>
<circle r="1.07212" transform="matrix(-1 0 0 1 420.786 207.567)" fill="#1A2027"/>
<g clip-path="url(#clip6)">
<path d="M541.115 344.249L532.287 318.724L538.988 283.152H556.832C557.838 283.152 558.709 283.851 558.926 284.833L574.45 355.029C575.277 358.766 575.202 362.646 574.233 366.348L568.66 387.634C568.199 389.397 567.011 390.881 565.393 391.718L561.63 393.665C561.042 393.97 560.628 394.528 560.507 395.179L558.018 408.59H542.74L541.474 394.94C541.426 394.429 541.197 393.951 540.827 393.595L535.652 388.603C534.207 387.209 533.496 385.221 533.729 383.226L536.787 357.072C536.997 355.278 537.828 353.615 539.137 352.371C541.332 350.286 542.105 347.11 541.115 344.249Z" fill="#F97600"/>
<path fill-rule="evenodd" clip-rule="evenodd" d="M534.691 325.674L541.115 344.249C542.105 347.11 541.332 350.286 539.137 352.371C537.828 353.615 536.997 355.278 536.787 357.072L536.095 362.995C540.437 359.761 546.225 353.909 546.225 344.263V293.873L534.691 325.674ZM542.189 402.648C549.494 402.034 558.777 395.469 552.389 395.725C548.009 395.9 543.509 394.476 540.791 393.56L540.827 393.595C541.197 393.951 541.426 394.429 541.474 394.94L542.189 402.648Z" fill="#DE5000"/>
<path d="M506.015 287.527L508.331 284.096C508.729 283.506 509.395 283.152 510.108 283.152H551.585L542.829 307.449C541.523 311.073 540.637 314.835 540.188 318.661L535.666 357.212C535.38 359.651 534.832 362.052 534.034 364.374L524.788 391.251C524.112 393.217 522.526 394.735 520.533 395.326L517.654 396.179C516.923 396.396 516.362 396.985 516.181 397.726L513.525 408.59H500.123V395.481C500.123 394.792 499.793 394.146 499.235 393.743L497.965 392.826C496.291 391.617 495.299 389.677 495.299 387.611V360.099C495.299 357.653 496.118 355.278 497.625 353.351C499.237 351.292 500.059 348.723 499.941 346.11L498.67 317.945C498.567 315.662 498.692 313.374 499.044 311.116L500.552 301.438C501.329 296.456 503.194 291.706 506.015 287.527Z" fill="#F97600"/>
<path d="M539.256 421.889C539.256 419.106 539.545 416.33 540.118 413.607L541.183 408.55C541.86 405.331 545.25 403.476 548.326 404.64L551.109 405.693C551.76 405.94 552.469 405.51 552.552 404.818L552.74 403.255C552.999 401.099 554.827 399.477 556.998 399.477H558.813C560.724 399.477 562.403 400.74 562.933 402.575L564.58 408.273C565.17 410.316 566.731 411.936 568.752 412.599L581.335 416.734C583.095 417.312 584.285 418.956 584.285 420.808V426.816C584.285 428.001 583.325 428.961 582.141 428.961H541.4C540.216 428.961 539.256 428.001 539.256 426.816V421.889Z" fill="#1A2027"/>
<path d="M497.443 417.703L498.596 406.847C498.774 405.168 500.87 404.512 501.974 405.789V405.789C502.143 405.983 502.451 405.962 502.59 405.745L505.371 401.439C506.161 400.216 507.518 399.477 508.974 399.477H512.346C514.252 399.477 515.93 400.735 516.463 402.566L518.469 409.447C518.864 410.803 519.695 411.992 520.834 412.829L525.714 416.418C526.813 417.226 527.462 418.509 527.462 419.873V426.816C527.462 428.001 526.502 428.961 525.318 428.961H499.587C498.403 428.961 497.443 428.001 497.443 426.816V417.703Z" fill="#1A2027"/>
<path d="M539.256 423.6H581.069C581.661 423.6 582.141 424.08 582.141 424.672V425.744C582.141 426.336 581.661 426.816 581.069 426.816H539.256V423.6Z" fill="white"/>
<path d="M497.443 423.6H506.556C507.148 423.6 507.628 424.08 507.628 424.672V425.744C507.628 426.336 507.148 426.816 506.556 426.816H497.443V423.6Z" fill="white"/>
<path d="M567.744 410.734L562.842 413.951L569.275 411.807L565.906 415.559" stroke="#1570FF" stroke-width="1.07212" stroke-linejoin="bevel"/>
<path d="M518.349 410.734L508.968 412.879H519.69L512.453 415.023" stroke="#1570FF" stroke-width="1.07212" stroke-linejoin="bevel"/>
<path fill-rule="evenodd" clip-rule="evenodd" d="M500.124 403.216V395.481C500.124 394.792 499.793 394.146 499.235 393.743L498.953 393.539C501.738 394.453 506.47 395.958 510.845 396.529C513.383 396.86 512.377 397.146 510.146 397.779C507.133 398.634 501.886 400.124 500.124 403.216Z" fill="#DE5000"/>
</g>
<rect x="511.381" y="227.938" width="43.957" height="55.2143" rx="3.75243" fill="black"/>
<path d="M509.772 227.938H540.57C548.86 227.938 555.58 234.648 555.58 242.938V281.016C555.58 282.201 554.62 283.152 553.436 283.152H513.205C512.041 283.152 511.089 282.223 511.061 281.06L509.772 227.938Z" fill="#F4B510"/>
<path d="M488.961 270.169L502.567 232.979C503.675 229.951 506.556 227.938 509.78 227.938C515.464 227.938 519.193 233.9 516.74 239.026C512.395 248.102 506.376 260.902 502.471 270.127C502.045 271.134 502.462 272.283 503.359 272.908C512.866 279.529 520.389 296.985 523.161 305.666H505.021L489.144 273.542C488.624 272.49 488.558 271.271 488.961 270.169Z" fill="#F4B510"/>
<path d="M528.47 324.264C527.949 322.938 524.434 313.942 523.442 310.223C523.238 309.459 522.787 307.814 522.102 305.666H506.02L510.04 313.171L509.995 313.239C508.426 315.593 508.56 318.692 510.328 320.901C510.488 321.101 510.565 321.354 510.543 321.609L510.348 323.957C510.323 324.257 510.172 324.533 509.933 324.717L507.381 326.681C507.043 326.941 506.891 327.377 506.994 327.79L507.047 328.001C507.21 328.652 507.924 328.995 508.534 328.715L513.29 326.535C513.605 326.391 513.831 326.102 513.896 325.761L514.182 324.262C514.244 323.936 514.727 323.992 514.713 324.324L514.606 326.898C514.6 327.037 514.567 327.174 514.509 327.3L512.201 332.336C511.917 332.957 512.277 333.681 512.943 333.829L513.307 333.91C513.757 334.01 514.221 333.811 514.458 333.415L517.95 327.596C518.036 327.452 518.088 327.29 518.1 327.122L518.345 323.734C518.366 323.437 518.783 323.391 518.869 323.676L520.169 327.992C520.206 328.117 520.221 328.248 520.212 328.378L519.804 334.085C519.749 334.847 520.487 335.42 521.212 335.178L521.507 335.08C521.874 334.958 522.147 334.646 522.22 334.266L523.404 328.112C523.429 327.98 523.429 327.846 523.405 327.714L522.372 322.136C522.318 321.842 522.712 321.693 522.865 321.949L525.219 325.871C525.284 325.981 525.33 326.101 525.353 326.227L526.344 331.574C526.488 332.356 527.405 332.714 528.041 332.237L528.354 332.002C528.635 331.791 528.795 331.456 528.782 331.105L528.541 324.612C528.537 324.491 528.514 324.377 528.47 324.264Z" fill="#7B371F"/>
<path d="M528.535 330.861C528.535 331.453 528.175 331.933 527.73 331.933C527.286 331.933 526.926 331.453 526.926 330.861C526.926 330.269 527.286 329.789 527.73 329.789C528.175 329.789 528.535 330.269 528.535 330.861Z" fill="#D58E54"/>
<path d="M522.102 333.542C522.102 334.134 521.742 334.614 521.298 334.614C520.854 334.614 520.494 334.134 520.494 333.542C520.494 332.949 520.854 332.469 521.298 332.469C521.742 332.469 522.102 332.949 522.102 333.542Z" fill="#D58E54"/>
<path d="M514.43 332.895C514.159 333.439 513.654 333.688 513.302 333.453C512.951 333.218 512.885 332.587 513.156 332.044C513.427 331.5 513.931 331.251 514.283 331.486C514.635 331.721 514.701 332.352 514.43 332.895Z" fill="#D58E54"/>
<path d="M508.852 328.106C508.266 328.293 507.723 328.118 507.639 327.715C507.555 327.312 507.962 326.834 508.548 326.648C509.134 326.461 509.677 326.636 509.761 327.039C509.845 327.441 509.438 327.919 508.852 328.106Z" fill="#D58E54"/>
<path d="M535.625 262.65L517.545 227.938H537.648V262.155C537.648 263.276 536.143 263.645 535.625 262.65Z" fill="#E379F8"/>
<path d="M514.597 228.474L533.245 264.41C535.055 267.897 540.328 266.61 540.328 262.681V227.938" stroke="#FECE00" stroke-width="2.14425"/>
<path d="M488.741 238.283L501.195 229.814H503.876L527.73 267.338V289.049H491.278L489.402 314.78H470.104V276.365C470.104 275.716 470.251 275.076 470.534 274.492L487.294 239.957C487.622 239.282 488.12 238.705 488.741 238.283Z" fill="#F97600"/>
<path fill-rule="evenodd" clip-rule="evenodd" d="M503.072 236.515L494.685 242.984C494.031 243.489 493.502 244.138 493.14 244.88L478.687 274.535C478.33 275.267 478.145 276.07 478.145 276.884V314.78H470.104V276.365C470.104 275.716 470.251 275.076 470.534 274.492L487.294 239.957C487.622 239.282 488.12 238.705 488.741 238.283L501.195 229.814H503.876L504.476 230.758L503.072 236.515Z" fill="#105ACD"/>
<path d="M551.049 270.554L561.234 237.319L567.928 253.506C568.368 254.569 568.454 255.745 568.173 256.861L562.038 281.276H551.049V270.554Z" fill="#F97600"/>
<path fill-rule="evenodd" clip-rule="evenodd" d="M513.53 223.118C513.528 223.116 513.524 223.113 513.527 223.112C513.682 223.076 521.639 221.237 529.071 221.237C536.539 221.237 543.211 223.095 543.276 223.113C543.277 223.113 543.275 223.114 543.274 223.116V223.116C543.273 223.117 543.274 223.119 543.276 223.119C543.521 223.133 543.764 223.173 544.001 223.238L560.934 227.895C562.005 228.19 561.976 229.718 560.895 229.972L557.604 230.747C556.818 230.932 556.511 231.886 557.041 232.494L562.716 239.01C562.961 239.291 563.042 239.68 562.93 240.036L552.796 272.256C552.704 272.549 552.657 272.855 552.657 273.162C552.657 274.831 554.01 276.183 555.678 276.183H563.111C565.035 276.183 566.595 277.743 566.595 279.667C566.595 281.592 565.035 283.152 563.111 283.152H553.193C551.121 283.152 549.441 281.472 549.441 279.399V272.834C549.441 272.566 549.412 272.299 549.355 272.037L539.952 228.782C539.845 228.289 539.409 227.938 538.904 227.938H520.619C519.924 227.938 519.413 228.588 519.577 229.263L530.036 272.262C530.107 272.552 530.143 272.85 530.143 273.148V289.585C530.143 291.657 528.463 293.337 526.39 293.337H494.629C492.63 293.337 491.01 291.717 491.01 289.719C491.01 287.72 492.63 286.1 494.629 286.1H523.442C525.514 286.1 527.194 284.42 527.194 282.348V274.171C527.194 273.224 526.837 272.313 526.193 271.619L497.026 240.169C496.653 239.768 496.644 239.149 497.004 238.736L502.44 232.494C502.97 231.886 502.663 230.932 501.877 230.747L498.298 229.905C497.237 229.655 497.182 228.165 498.222 227.838L512.708 223.286C512.974 223.202 513.249 223.148 513.528 223.125C513.531 223.125 513.533 223.121 513.53 223.118V223.118Z" fill="white"/>
<path d="M495.299 265.462C495.299 264.87 495.779 264.39 496.371 264.39H512.453C513.045 264.39 513.525 264.87 513.525 265.462V278.4C513.525 278.696 513.403 278.978 513.188 279.181L509.433 282.715C509.134 282.996 508.74 283.152 508.331 283.152H500.493C500.083 283.152 499.689 282.996 499.391 282.715L495.636 279.181C495.421 278.978 495.299 278.696 495.299 278.4V265.462Z" fill="#1570FF"/>
<path d="M560.698 262.245C560.698 261.653 561.178 261.173 561.77 261.173H566.595C567.187 261.173 567.667 261.653 567.667 262.245V272.496C567.667 272.664 567.627 272.831 567.551 272.981L566.372 275.303C566.098 275.843 565.543 276.183 564.938 276.183H563.427C562.822 276.183 562.268 275.843 561.994 275.303L560.814 272.981C560.738 272.831 560.698 272.664 560.698 272.496V262.245Z" fill="#1570FF"/>
<rect x="469.568" y="314.511" width="20.3703" height="9.6491" rx="1.07212" fill="#DE5000"/>
<path fill-rule="evenodd" clip-rule="evenodd" d="M503.431 302.45L502.372 300.306H521.244C521.534 301.046 521.805 301.762 522.056 302.45H503.431Z" fill="#FECE00"/>
<path d="M536.221 188.985C543.955 190.06 550.277 195.567 545.421 202.743C540.489 210.029 541.898 216.756 533.079 218.547C527.921 219.594 517.87 221.772 517.87 208.603C517.87 205.11 516.816 194.613 523.807 196.241C525.068 190.424 529.904 188.107 536.221 188.985Z" fill="#1A2027"/>
<path fill-rule="evenodd" clip-rule="evenodd" d="M542.757 216.992C543.945 214.896 544.616 212.396 544.616 209.711C544.616 208.676 544.309 207.923 543.978 207.113L543.978 207.113C543.669 206.357 543.56 205.54 543.506 204.725C543.156 199.421 540.406 198.722 535.235 198.722C534.609 198.722 533.969 198.7 533.335 198.678C531.027 198.599 528.812 198.523 527.73 199.526C526.362 200.796 525.7 202.66 525.065 204.447C524.43 206.236 523.821 207.949 522.558 208.912C521.764 209.517 520.707 209.012 520.211 208.145C519.12 206.236 516.205 207.01 516.205 209.209V210.784C516.205 211.968 517.165 212.928 518.349 212.928C519.505 212.928 520.485 213.735 520.902 214.813C520.944 214.919 520.986 215.025 521.03 215.13V227.401C521.03 232.138 524.87 235.978 529.607 235.978H530.983C533.804 235.978 535.857 233.302 535.125 230.577L533.684 225.214C533.929 225.243 534.179 225.257 534.431 225.257C536.577 225.257 538.477 224.207 539.645 222.592C540.445 221.488 541.076 220.24 541.703 218.999C542.047 218.32 542.389 217.642 542.757 216.992Z" fill="#7B371F"/>
<path d="M534.967 206.495L535.342 209.117C535.449 209.865 535.691 210.586 536.058 211.245L536.882 212.729C537.466 213.78 536.706 215.072 535.503 215.072V215.072" stroke="#1A2027" stroke-width="1.07212"/>
<path d="M538.72 212.928C538.72 213.52 538.24 214 537.648 214L537.112 214" stroke="#1A2027" stroke-width="1.07212"/>
<path d="M533.895 214C533.303 214 532.823 213.52 532.823 212.928" stroke="#1A2027" stroke-width="1.07212"/>
<path d="M531.215 217.941C533.37 216.568 536.01 217.203 537.112 219.361" stroke="#1A2027" stroke-width="1.07212"/>
<path d="M530.679 204.351C529.791 205.423 528.626 205.959 527.462 205.959" stroke="#1A2027" stroke-width="1.07212"/>
<path d="M539.256 204.351C540.144 205.423 541.308 205.959 542.472 205.959" stroke="#1A2027" stroke-width="1.07212"/>
<path d="M531.751 207.567C530.567 206.138 528.647 206.138 527.462 207.567C529.178 209.497 531.036 208.371 531.751 207.567Z" fill="white"/>
<path d="M542.472 207.567C541.288 206.138 539.368 206.138 538.184 207.567C539.899 209.497 541.757 208.371 542.472 207.567Z" fill="white"/>
<path d="M541.936 209.175C541.048 209.89 539.608 209.89 538.72 209.175" stroke="#1A2027" stroke-width="1.07212"/>
<path d="M531.215 209.175C530.327 209.89 528.887 209.89 527.998 209.175" stroke="#1A2027" stroke-width="1.07212"/>
<circle cx="529.607" cy="207.567" r="1.07212" fill="#1A2027"/>
<circle cx="540.328" cy="207.567" r="1.07212" fill="#1A2027"/>
<path fill-rule="evenodd" clip-rule="evenodd" d="M534.379 215.345C533.891 215.18 533.334 215.072 532.856 215.072C531.73 215.072 529.48 216.334 529.071 219.7C529.074 219.701 529.078 219.701 529.082 219.701C528.992 220.545 529.31 225.793 535.065 225.793C539.509 225.793 540.417 222.621 540.321 219.7C540.322 219.7 540.323 219.7 540.323 219.7C540.415 217.916 539.117 214.348 536.439 215.318C535.797 215.551 535.027 215.562 534.379 215.345ZM539.426 219.517C538.695 219.289 537.972 218.891 537.332 218.486C536.115 217.716 534.692 217.691 533.434 218.393C532.562 218.88 531.533 219.367 530.48 219.587C530.764 219.786 530.987 220.112 531.208 220.434C531.507 220.87 531.802 221.301 532.237 221.401C532.974 221.401 533.423 221.042 534.006 220.543C534.523 220.1 535.041 219.656 535.578 219.656C536.116 219.656 536.672 220.127 537.125 220.555C537.544 220.951 537.924 221.31 538.305 221.225C538.635 221.152 538.812 220.743 538.999 220.31C539.122 220.027 539.249 219.733 539.426 219.517Z" fill="#1A2027"/>
</g>
</g>
<defs>
<clipPath id="clip0">
<rect width="960" height="480" fill="white"/>
</clipPath>
<clipPath id="clip1">
<rect width="541.422" height="428.849" fill="white" transform="translate(209.289 25.7309)"/>
</clipPath>
<clipPath id="clip2">
<rect width="541.422" height="428.849" fill="white" transform="translate(209.289 25.7309)"/>
</clipPath>
<clipPath id="clip3">
<rect width="134.015" height="145.809" fill="white" transform="translate(275.514 283.152)"/>
</clipPath>
<clipPath id="clip4">
<rect width="134.015" height="145.809" fill="white" transform="matrix(-1 0 0 1 684.528 283.152)"/>
</clipPath>
<clipPath id="clip5">
<rect width="134.015" height="145.809" fill="white" transform="matrix(-1 0 0 1 503.876 283.152)"/>
</clipPath>
<clipPath id="clip6">
<rect width="134.015" height="145.809" fill="white" transform="translate(457.238 283.152)"/>
</clipPath>
</defs>
</svg>
