<?xml version="1.0"?>
<svg xmlns="http://www.w3.org/2000/svg" xmlns:xlink="http://www.w3.org/1999/xlink" xmlns:svgjs="http://svgjs.com/svgjs" version="1.1" width="512" height="512" x="0" y="0" viewBox="0 0 512 512" style="enable-background:new 0 0 512 512" xml:space="preserve" class=""><g><g xmlns="http://www.w3.org/2000/svg"><g><path d="m341.998 71.789c-21.113-6.445-43.298-9.789-65.998-9.789-60.1 0-116.603 23.404-159.1 65.901-35.824 35.825-58.08 81.603-64.185 131.099l77.289 199.21c40.684 34.805 91.879 53.79 145.996 53.79 16.53 0 32.785-1.781 48.554-5.232l102.446-224.79z" fill="#93eaf9" data-original="#d5e7ff" style="" class=""/><path d="m276 62c-6.718 0-13.387.309-20 .888v448.24c6.612.579 13.283.873 20 .873 16.53 0 32.785-1.781 48.554-5.232l102.446-224.791-85.002-210.189c-21.113-6.445-43.298-9.789-65.998-9.789z" fill="#93eaf9" data-original="#acceff" style="" class=""/><path d="m501 287c0-60.1-23.404-116.602-65.9-159.099-26.446-26.445-58.317-45.492-93.102-56.112l-27.354 27.354c-11.715 11.714-18.166 27.29-18.166 43.856s6.451 32.142 18.166 43.856l72.478 72.478c6.048 6.048 9.379 14.09 9.379 22.644 0 17.657-14.365 32.022-32.022 32.022h-26.46c-45.226.001-82.019 36.794-82.019 82.018 0 27.21 10.597 52.792 29.837 72.033l38.718 38.718c41.564-9.097 79.736-29.861 110.544-60.669 42.497-42.497 65.901-98.999 65.901-159.099z" fill="#3dc983" data-original="#00a763" style="" class=""/><path d="m205 346.832c0-48.431-39.401-87.832-87.832-87.832h-64.453c-1.137 9.218-1.715 18.564-1.715 28 0 60.1 23.404 116.602 65.901 159.099 4.23 4.23 8.605 8.263 13.103 12.111l49.271-49.271c16.589-16.59 25.725-38.646 25.725-62.107z" fill="#3dc983" data-original="#a2e786" style="" class=""/></g><g><path d="m245.311 22.315c-29.115-29.114-76.099-29.738-105.98-1.871-29.882-27.869-76.866-27.244-105.98 1.872-9.877 9.875-16.709 21.983-20.034 35.184l126.014 10.475 125.955-10.475c-3.253-12.901-9.903-25.113-19.975-35.185z" fill="#ff1f1f" data-original="#ff6b6b" style="" class=""/><path d="m265.286 57.5c-3.253-12.901-9.903-25.113-19.975-35.185-29.115-29.114-76.099-29.738-105.98-1.871v47.532z" fill="#ff1f1f" data-original="#ff1f3d" style="" class=""/><path d="m265.286 57.5h-251.969c-1.527 6.064-2.317 12.358-2.317 18.775 0 13.841 3.669 27.115 10.532 38.725l117.799 10.984 117.783-10.984c10.305-17.505 13.022-38.268 8.172-57.5z" fill="#ffe566" data-original="#ffef4a" style="" class=""/><path d="m139.331 57.5v68.484l117.783-10.984c10.305-17.505 13.022-38.268 8.173-57.5z" fill="#f2a50a" data-original="#ffb454" style="" class=""/><path d="m257.114 115h-235.582c3.243 5.488 7.193 10.608 11.819 15.234l42.266 42.266 63.714 10.493 63.714-10.493 42.266-42.266c4.667-4.667 8.6-9.793 11.803-15.234z" fill="#3dc983" data-original="#a2e786" style="" class=""/><path d="m139.331 182.993 63.714-10.493 42.266-42.266c4.667-4.667 8.6-9.793 11.803-15.234h-117.783z" fill="#3dc983" data-original="#00a763" style="" class=""/><path d="m128.723 225.606c2.929 2.93 6.769 4.394 10.608 4.394s7.679-1.465 10.608-4.394l53.106-53.106h-127.428z" fill="#b963ce" data-original="#d09df4" style="" class=""/><path d="m139.331 230c3.839 0 7.679-1.465 10.608-4.394l53.106-53.106h-63.714z" fill="#b963ce" data-original="#a061e2" style="" class=""/></g></g></g></svg>
