<?xml version="1.0"?>
<svg xmlns="http://www.w3.org/2000/svg" xmlns:xlink="http://www.w3.org/1999/xlink" xmlns:svgjs="http://svgjs.com/svgjs" version="1.1" width="512" height="512" x="0" y="0" viewBox="0 0 512 512" style="enable-background:new 0 0 512 512" xml:space="preserve" class=""><g><g xmlns="http://www.w3.org/2000/svg"><g><g id="XMLID_113_"><g id="XMLID_114_"><g id="XMLID_115_"><g id="XMLID_116_"><g id="XMLID_117_"><g id="XMLID_118_"><g id="XMLID_119_"><g id="XMLID_120_"><g id="XMLID_121_"><g id="XMLID_122_"><g id="XMLID_123_"><g id="XMLID_124_"><g id="XMLID_125_"><g id="XMLID_126_"><circle id="XMLID_127_" cx="256" cy="256" fill="#93eaf9" r="256" data-original="#93eaf9" style="" class=""/></g></g></g></g></g></g></g></g></g></g></g></g></g></g></g><path d="m512 256c0-12.706-.94-25.191-2.728-37.401l-121.146-121.146-257.853 257.812 155.053 155.053c127.571-14.552 226.674-122.853 226.674-254.318z" fill="#93eaf9" data-original="#2dd0fa" style="" class=""/><g><path d="m255.999 377.923-101.751-22.382 101.751 122.459 101.753-122.459z" fill="#000000" data-original="#605858" style="" class=""/><path d="m357.75 355.54-29.02 34.93-72.73 87.53v-100.08z" fill="#000000" data-original="#3a3131" style="" class=""/><circle cx="256" cy="223.169" fill="#000000" r="182.38" data-original="#f7f7f7" style="" class=""/><path d="m438.38 223.17c0 74.87-45.12 139.21-109.65 167.3-22.28 9.7-46.88 15.08-72.73 15.08v-364.76c100.73 0 182.38 81.65 182.38 182.38z" fill="#000000" data-original="#dddddd" style="" class=""/><g><g><g><path d="m352.402 137.048h-192.804c23.333-26.104 57.092-42.669 94.734-43.143h3.338c37.641.474 71.399 17.039 94.732 43.143z" fill="#f44040" data-original="#ff66cc" style="" class=""/></g></g><g><g><g><path d="m352.402 137.048h-95.929v-43.153c.402 0 .793 0 1.195.01 37.643.474 71.401 17.039 94.734 43.143z" fill="#f44040" data-original="#f440c1" style="" class=""/></g></g></g><g><g><path d="m377.961 180.202h-243.922c.051-.124.093-.247.134-.371 5.676-15.937 14.381-30.431 25.424-42.783h192.805c11.043 12.352 19.748 26.846 25.424 42.783.042.123.083.247.135.371z" fill="#fdbf2d" data-original="#fdbf2d" style="" class=""/></g></g><g><g><path d="m377.961 180.202h-121.487v-43.153h95.929c11.043 12.352 19.748 26.846 25.424 42.783.041.122.082.246.134.37z" fill="#f2a50a" data-original="#f2a50a" style="" class=""/></g></g><g><g><path d="m385.265 222.984h-258.53c.021-14.999 2.596-29.391 7.304-42.783.051-.124.093-.247.134-.371h243.654c.041.124.082.247.134.371 4.708 13.393 7.283 27.784 7.304 42.783z" fill="#ffe566" data-original="#ffe566" style="" class=""/></g></g><g><g><path d="m385.265 222.984h-128.791v-43.154h121.353c.041.124.082.247.134.371 4.708 13.393 7.283 27.784 7.304 42.783z" fill="#f9cb3a" data-original="#f9cb3a" style="" class=""/></g></g><g><g><path d="m385.265 222.984v.185c0 15.061-2.575 29.514-7.304 42.958h-243.922c-4.728-13.444-7.304-27.897-7.304-42.958v-.185z" fill="#44e28f" data-original="#44e28f" style="" class=""/></g></g><g><g><path d="m385.265 222.984v.185c0 15.061-2.575 29.514-7.304 42.958h-121.487v-43.143z" fill="#3dc983" data-original="#3dc983" style="" class=""/></g></g><g><g><path d="m377.961 266.128c-5.666 16.081-14.422 30.699-25.548 43.153h-192.826c-11.126-12.455-19.882-27.073-25.548-43.153z" fill="#93eaf9" data-original="#2dd0fa" style="" class=""/></g></g><g><g><path d="m377.961 266.128c-5.666 16.081-14.422 30.699-25.548 43.153h-95.939v-43.153z" fill="#24b0e0" data-original="#24b0e0" style="" class=""/></g></g><g><g><path d="m352.413 309.281c-23.673 26.485-58.101 43.154-96.413 43.154s-72.74-16.668-96.413-43.154z" fill="#b963ce" data-original="#b963ce" style=""/></g></g><g><g><path d="m352.413 309.281c-23.58 26.372-57.813 43.02-95.939 43.154v-43.154z" fill="#9a43af" data-original="#9a43af" style="" class=""/></g></g></g></g></g></g></svg>
